name GIL02_slow1EmgEnv.mot
datacolumns 51
datarows 11
range 0.76759255 0.77685183
endheader
                time	   rect_fem_l_emgRec	   rect_fem_l_emgEnv	   rect_fem_l_emgAve	   rect_fem_l_emgSDp	   rect_fem_l_emgSDm	   rect_fem_r_emgRec	   rect_fem_r_emgEnv	   rect_fem_r_emgAve	   rect_fem_r_emgSDp	   rect_fem_r_emgSDm	   med_hams_l_emgRec	   med_hams_l_emgEnv	   med_hams_l_emgAve	   med_hams_l_emgSDp	   med_hams_l_emgSDm	   med_hams_r_emgRec	   med_hams_r_emgEnv	   med_hams_r_emgAve	   med_hams_r_emgSDp	   med_hams_r_emgSDm	   lat_hams_l_emgRec	   lat_hams_l_emgEnv	   lat_hams_l_emgAve	   lat_hams_l_emgSDp	   lat_hams_l_emgSDm	   lat_hams_r_emgRec	   lat_hams_r_emgEnv	   lat_hams_r_emgAve	   lat_hams_r_emgSDp	   lat_hams_r_emgSDm	    tib_ant_l_emgRec	    tib_ant_l_emgEnv	    tib_ant_l_emgAve	    tib_ant_l_emgSDp	    tib_ant_l_emgSDm	    tib_ant_r_emgRec	    tib_ant_r_emgEnv	    tib_ant_r_emgAve	    tib_ant_r_emgSDp	    tib_ant_r_emgSDm	    gas_sol_l_emgRec	    gas_sol_l_emgEnv	    gas_sol_l_emgAve	    gas_sol_l_emgSDp	    gas_sol_l_emgSDm	    gas_sol_r_emgRec	    gas_sol_r_emgEnv	    gas_sol_r_emgAve	    gas_sol_r_emgSDp	    gas_sol_r_emgSDm	
          0.76759255	          0.16462967	          0.78290811	          0.45754895	          0.68766248	          0.22743541	          0.03643877	          0.43367303	          0.25000674	          0.38849959	          0.11151388	          0.72904504	          0.89636572	          0.54693764	          0.72997846	          0.36389683	          0.03058380	          0.02819619	          0.12339501	          0.36813593	         -0.12134591	          0.05160677	          0.81925718	          0.35647523	          0.48877913	          0.22417134	          0.02543130	          0.03228775	          0.13301030	          0.23122906	          0.03479154	          0.21820372	          0.36529604	          0.50037521	          0.68260410	          0.31814632	          0.01928063	          0.09380567	          0.15710013	          0.23538729	          0.07881296	          0.03708909	          0.08581144	          0.10601835	          0.16801003	          0.04402667	          0.00446320	          0.08735075	         -0.00528077	          0.02249026	         -0.03305179	
          0.76851845	          0.28306253	          0.78024834	          0.45502117	          0.68456525	          0.22547710	          0.04630663	          0.42602231	          0.24764064	          0.38497284	          0.11030844	          0.27332656	          0.89550872	          0.54468668	          0.72736751	          0.36200584	          0.03041123	          0.02855767	          0.12242844	          0.36620765	         -0.12135077	          0.17189791	          0.81363722	          0.35421947	          0.48613328	          0.22230566	          0.02155323	          0.03085371	          0.13270469	          0.23025431	          0.03515507	          0.08261172	          0.37547883	          0.49943784	          0.68162364	          0.31725204	          0.02124933	          0.08819692	          0.15555686	          0.23358484	          0.07752888	          0.03604545	          0.08435671	          0.10646093	          0.16887113	          0.04405073	          0.01243606	          0.08519345	         -0.00496846	          0.02221282	         -0.03214973	
          0.76944441	          0.15135380	          0.77767218	          0.45249385	          0.68146463	          0.22352307	          0.02690605	          0.41833575	          0.24524997	          0.38141358	          0.10908636	          0.84902852	          0.89384793	          0.54242295	          0.72474281	          0.36010309	          0.02065781	          0.02897980	          0.12149134	          0.36429014	         -0.12130747	          0.35887288	          0.80770865	          0.35196340	          0.48348649	          0.22044031	         -0.00004050	          0.02944159	          0.13239396	          0.22926463	          0.03552328	          0.13962876	          0.38577360	          0.49850011	          0.68063776	          0.31636246	          0.02695462	          0.08270978	          0.15403745	          0.23181464	          0.07626025	          0.08392844	          0.08290361	          0.10690238	          0.16973668	          0.04406808	          0.00351700	          0.08303516	         -0.00461789	          0.02199006	         -0.03122583	
          0.77037030	          0.13871035	          0.77516878	          0.44996789	          0.67836168	          0.22157410	          0.03303046	          0.41062203	          0.24283646	          0.37782425	          0.10784867	          0.80949387	          0.89138906	          0.54014671	          0.72210477	          0.35818864	          0.01199932	          0.02946554	          0.12058596	          0.36238682	         -0.12121490	          0.25757028	          0.80147917	          0.34970766	          0.48083946	          0.21857587	          0.01435692	          0.02805674	          0.13207848	          0.22826090	          0.03589607	          0.15099659	          0.39616338	          0.49756220	          0.67964655	          0.31547785	          0.09403814	          0.07735354	          0.15254319	          0.23007838	          0.07500800	          0.06663044	          0.08145670	          0.10734266	          0.17060656	          0.04407876	          0.00136158	          0.08087932	         -0.00423034	          0.02182055	         -0.03028123	
          0.77129626	          0.08120881	          0.77272659	          0.44744283	          0.67525600	          0.21962966	          0.00014086	          0.40288973	          0.24040125	          0.37420648	          0.10659602	          0.74051784	          0.88813990	          0.53785807	          0.71945354	          0.35626259	          0.01202381	          0.03001789	          0.11971449	          0.36050085	         -0.12107187	          0.03655411	          0.79495650	          0.34745222	          0.47819220	          0.21671225	          0.01640674	          0.02670453	          0.13175867	          0.22724392	          0.03627343	          0.11771489	          0.40663084	          0.49662441	          0.67865035	          0.31459847	          0.07547241	          0.07213722	          0.15107487	          0.22837713	          0.07377261	          0.03672414	          0.08002056	          0.10778178	          0.17148089	          0.04408267	          0.01201063	          0.07872927	         -0.00380698	          0.02170284	         -0.02931681	
          0.77222216	          0.02407168	          0.77033345	          0.44491985	          0.67214893	          0.21769078	          0.04400067	          0.39514736	          0.23794611	          0.37056282	          0.10532939	          0.45424740	          0.88411019	          0.53555751	          0.71678963	          0.35432538	          0.00298865	          0.03063991	          0.11887931	          0.35863585	         -0.12087723	          0.01649132	          0.78814838	          0.34519765	          0.47554533	          0.21484996	          0.04591099	          0.02539040	          0.13143487	          0.22621460	          0.03665515	          0.01795885	          0.41715843	          0.49568698	          0.67764935	          0.31372461	          0.00785606	          0.06706957	          0.14963388	          0.22671270	          0.07255507	          0.04273651	          0.07859976	          0.10821971	          0.17235956	          0.04407985	          0.00574473	          0.07658831	         -0.00334916	          0.02163542	         -0.02833375	
          0.77314812	          0.05000599	          0.76797665	          0.44239891	          0.66904041	          0.21575740	          0.04695084	          0.38740333	          0.23547225	          0.36689498	          0.10404952	          0.04824458	          0.87931163	          0.53324491	          0.71411295	          0.35237686	          0.00986283	          0.03133471	          0.11808266	          0.35679501	         -0.12062968	          0.06304166	          0.78106252	          0.34294397	          0.47289895	          0.21298899	          0.01423655	          0.02411982	          0.13110749	          0.22517369	          0.03704130	          0.23162694	          0.42772833	          0.49474975	          0.67664336	          0.31285615	          0.00665396	          0.06215902	          0.14822105	          0.22508623	          0.07135586	          0.03956420	          0.07719885	          0.10865650	          0.17324273	          0.04407027	          0.01326078	          0.07445965	         -0.00285810	          0.02161675	         -0.02733295	
          0.77407402	          0.11809169	          0.76564295	          0.43988049	          0.66593115	          0.21382983	          0.06077556	          0.37966592	          0.23298146	          0.36320558	          0.10275733	          0.30476947	          0.87375778	          0.53092092	          0.71142423	          0.35041761	          0.00831423	          0.03210543	          0.11732695	          0.35498208	         -0.12032819	          0.01101829	          0.77370661	          0.34069178	          0.47025374	          0.21112981	          0.02289907	          0.02289827	          0.13077696	          0.22412223	          0.03743168	          0.30317820	          0.43832256	          0.49381351	          0.67563321	          0.31199382	          0.01192668	          0.05741370	          0.14683768	          0.22349946	          0.07017590	          0.00184683	          0.07582234	          0.10909212	          0.17413027	          0.04405396	          0.02170226	          0.07234643	         -0.00233520	          0.02164525	         -0.02631566	
          0.77499998	          0.13383776	          0.76331868	          0.43736476	          0.66282132	          0.21190819	          0.14891256	          0.37194331	          0.23047499	          0.35949633	          0.10145366	          0.28984003	          0.86746398	          0.52858537	          0.70872334	          0.34844741	          0.00310253	          0.03295526	          0.11661450	          0.35320034	         -0.11997134	          0.02975956	          0.76608830	          0.33844098	          0.46760957	          0.20927240	          0.00612324	          0.02173122	          0.13044362	          0.22306097	          0.03782626	          0.11987164	          0.44892298	          0.49287799	          0.67461856	          0.31113742	          0.01361758	          0.05284142	          0.14548478	          0.22195370	          0.06901585	          0.01430280	          0.07447472	          0.10952657	          0.17502228	          0.04403087	          0.02578815	          0.07025167	         -0.00178175	          0.02171930	         -0.02528279	
          0.77592587	          0.04779586	          0.76098981	          0.43485233	          0.65971172	          0.20999295	          0.26587670	          0.36424354	          0.22795476	          0.35576996	          0.10013956	          0.01639940	          0.86044730	          0.52623880	          0.70601089	          0.34646671	          0.00704283	          0.03388743	          0.11594778	          0.35145361	         -0.11955806	          0.01679968	          0.75821519	          0.33619228	          0.46496730	          0.20741726	          0.02407279	          0.02062414	          0.13010794	          0.22199100	          0.03822488	          0.00544928	          0.45951136	          0.49194363	          0.67359984	          0.31028742	          0.00590257	          0.04844969	          0.14416362	          0.22045066	          0.06787658	          0.02591124	          0.07316042	          0.10995985	          0.17591868	          0.04400101	          0.02364152	          0.06817835	         -0.00119917	          0.02183727	         -0.02423561	
          0.77685183	          0.16247039	          0.75864199	          0.43234318	          0.65660231	          0.20808406	          0.27978289	          0.35657448	          0.22542198	          0.35202831	          0.09881565	          0.13817836	          0.85272643	          0.52388108	          0.70328674	          0.34447542	          0.01124808	          0.03490519	          0.11532917	          0.34974539	         -0.11908705	          0.01707756	          0.75009485	          0.33394560	          0.46232681	          0.20556439	          0.02653928	          0.01958245	          0.12977029	          0.22091307	          0.03862752	          0.02648214	          0.47006940	          0.49101049	          0.67257714	          0.30944383	          0.02198002	          0.04424565	          0.14287518	          0.21899163	          0.06675873	          0.04436984	          0.07188381	          0.11039197	          0.17681956	          0.04396439	          0.01913336	          0.06612931	         -0.00058881	          0.02199748	         -0.02317509	
